<?xml version="1.0" encoding="UTF-8" standalone="no"?>
<!-- Created with Inkscape (http://www.inkscape.org/) -->

<svg
   xmlns:dc="http://purl.org/dc/elements/1.1/"
   xmlns:cc="http://creativecommons.org/ns#"
   xmlns:rdf="http://www.w3.org/1999/02/22-rdf-syntax-ns#"
   xmlns:svg="http://www.w3.org/2000/svg"
   xmlns="http://www.w3.org/2000/svg"
   xmlns:sodipodi="http://sodipodi.sourceforge.net/DTD/sodipodi-0.dtd"
   xmlns:inkscape="http://www.inkscape.org/namespaces/inkscape"
   width="256"
   height="256"
   id="svg2"
   version="1.1"
   inkscape:version="0.48.3.1 r9886"
   sodipodi:docname="Mash.svg"
   inkscape:export-filename="/home/john/dev/QMonsterMash/images/stopMash.png"
   inkscape:export-xdpi="90"
   inkscape:export-ydpi="90">
  <defs
     id="defs4" />
  <sodipodi:namedview
     id="base"
     pagecolor="#ffffff"
     bordercolor="#666666"
     borderopacity="1.0"
     inkscape:pageopacity="0.0"
     inkscape:pageshadow="2"
     inkscape:zoom="2.8"
     inkscape:cx="90.102323"
     inkscape:cy="127.46573"
     inkscape:document-units="px"
     inkscape:current-layer="layer2"
     showgrid="false"
     inkscape:window-width="1920"
     inkscape:window-height="1025"
     inkscape:window-x="-2"
     inkscape:window-y="-3"
     inkscape:window-maximized="1"
     inkscape:snap-bbox="true" />
  <metadata
     id="metadata7">
    <rdf:RDF>
      <cc:Work
         rdf:about="">
        <dc:format>image/svg+xml</dc:format>
        <dc:type
           rdf:resource="http://purl.org/dc/dcmitype/StillImage" />
        <dc:title />
      </cc:Work>
    </rdf:RDF>
  </metadata>
  <g
     inkscape:groupmode="layer"
     id="layer4"
     inkscape:label="Background"
     style="display:inline">
    <path
       style="font-size:medium;font-style:normal;font-variant:normal;font-weight:normal;font-stretch:normal;text-indent:0;text-align:start;text-decoration:none;line-height:normal;letter-spacing:normal;word-spacing:normal;text-transform:none;direction:ltr;block-progression:tb;writing-mode:lr-tb;text-anchor:start;baseline-shift:baseline;color:#000000;fill:#ff008e;fill-opacity:1;stroke:#000000;stroke-width:1;marker:none;visibility:visible;display:inline;overflow:visible;enable-background:accumulate;font-family:Sans;-inkscape-font-specification:Sans;stroke-opacity:1;stroke-miterlimit:4;stroke-dasharray:none"
       d="m 129.53125,10.71875 0,12.5 0,96.21875 -82.21875,0 -12.5,0 0,12.5 0,95.625 -31.21875,0 0,25 43.71875,0 12.5,0 0,-12.5 0,-95.625 82.21875,0 12.5,0 0,-12.5 0,-96.21875 97.59375,0 0,-25 -110.09375,0 -12.5,0 z"
       id="path2985"
       inkscape:connector-curvature="0" />
    <path
       style="font-size:medium;font-style:normal;font-variant:normal;font-weight:normal;font-stretch:normal;text-indent:0;text-align:start;text-decoration:none;line-height:normal;letter-spacing:normal;word-spacing:normal;text-transform:none;direction:ltr;block-progression:tb;writing-mode:lr-tb;text-anchor:start;baseline-shift:baseline;color:#000000;fill:#1100e0;fill-opacity:1;stroke:#000000;stroke-width:1;marker:none;visibility:visible;display:inline;overflow:visible;enable-background:accumulate;font-family:Sans;-inkscape-font-specification:Sans;stroke-opacity:1;stroke-miterlimit:4;stroke-dasharray:none"
       d="m 224.53125,11.5 c -9.80109,3.482111 -23.37809,8.534314 -38.625,15.6875 C 155.41243,41.493871 118.01761,64.185172 90.125,100.375 36.843099,169.5066 3.1875,240.9375 3.1875,240.9375 l 22.09375,10.4375 c 0,0 32.841987,-69.47455 84.1875,-136.09375 24.42108,-31.685623 58.40272,-52.608869 86.8125,-65.9375 14.20489,-6.664315 26.96312,-11.446462 36.4375,-14.8125 4.73719,-1.683019 8.61855,-2.994799 11.6875,-4.125 1.53448,-0.565101 2.84167,-1.054678 4.21875,-1.6875 0.68854,-0.316411 1.38396,-0.650232 2.34375,-1.25 0.95979,-0.599768 2.33888,-1.035569 4.375,-4.28125 C 224.62146,5.3195327 247.77168,3.2841132 224.53125,11.5 z"
       id="path2987"
       inkscape:connector-curvature="0"
       sodipodi:nodetypes="cssccsssssscc" />
  </g>
  <g
     inkscape:groupmode="layer"
     id="layer2"
     inkscape:label="Start"
     style="display:inline">
    <path
       style="fill:#00ff00;fill-opacity:1;stroke:#000000;stroke-width:3;stroke-linecap:butt;stroke-linejoin:miter;stroke-miterlimit:4;stroke-opacity:1;stroke-dasharray:none"
       d="m 173.39964,172.47566 0,67.81616 65.45733,-33.90818 z"
       id="path3765"
       inkscape:connector-curvature="0"
       sodipodi:nodetypes="cccc" />
  </g>
  <g
     inkscape:groupmode="layer"
     id="layer3"
     inkscape:label="Stop"
     style="display:none">
    <rect
       style="fill:#ff0000;fill-opacity:1;stroke:#000000;stroke-width:3;stroke-linecap:butt;stroke-linejoin:round;stroke-miterlimit:4;stroke-opacity:1;stroke-dasharray:none;stroke-dashoffset:0"
       id="rect3812"
       width="68.147446"
       height="67.155014"
       x="170.28342"
       y="172.84729" />
  </g>
</svg>
